<svg width="32" height="32" viewBox="0 0 32 32" fill="none" xmlns="http://www.w3.org/2000/svg">
<path fill-rule="evenodd" clip-rule="evenodd" d="M1 4.35788V26.5343C1 28.3888 2.50337 29.8921 4.35788 29.8921L15.8092 29.8921C13.7817 28.1026 12.5029 25.4843 12.5029 22.5674C12.5029 17.1736 16.8754 12.8011 22.2692 12.8011C23.5132 12.8011 24.7028 13.0337 25.7971 13.4577V4.35789C25.7971 2.50338 24.2937 1 22.4392 1H4.35789C2.50338 1 1 2.50338 1 4.35788ZM9.86397 10.2326H7.3395L6.87043 11.3925H5.14765L7.78299 5.42242H9.44607L12.0899 11.3925H10.333L9.86397 10.2326ZM9.36931 8.98738L8.60174 7.07697L7.83416 8.98738H9.36931ZM15.2978 5.42242C15.838 5.42242 16.307 5.51339 16.705 5.69534C17.1031 5.8716 17.4101 6.12746 17.6261 6.46291C17.8422 6.79269 17.9502 7.18216 17.9502 7.63133C17.9502 8.08051 17.8422 8.46998 17.6261 8.79975C17.4101 9.12953 17.1031 9.38538 16.705 9.56733C16.307 9.74359 15.838 9.83172 15.2978 9.83172H14.2573V11.3925H12.5687V5.42242H15.2978ZM15.1955 8.50125C15.5423 8.50125 15.8039 8.42734 15.9801 8.27951C16.1564 8.12599 16.2445 7.90993 16.2445 7.63133C16.2445 7.35273 16.1564 7.13667 15.9801 6.98316C15.8039 6.82964 15.5423 6.75289 15.1955 6.75289H14.2573V8.50125H15.1955ZM20.4622 5.42242H18.7736V11.3925H20.4622V5.42242ZM4.11312 15.0615C4.11312 14.689 4.41516 14.3869 4.78774 14.3869H11.9794C12.352 14.3869 12.6541 14.689 12.6541 15.0615C12.6541 15.4341 12.352 15.7362 11.9794 15.7362H4.78774C4.41516 15.7362 4.11312 15.4341 4.11312 15.0615ZM4.78774 17.4691C4.41516 17.4691 4.11312 17.7711 4.11312 18.1437C4.11312 18.5163 4.41516 18.8183 4.78774 18.8183H9.46784C9.84042 18.8183 10.1425 18.5163 10.1425 18.1437C10.1425 17.7711 9.84042 17.4691 9.46784 17.4691H4.78774Z" fill="#1A1A1A"/>
<path fill-rule="evenodd" clip-rule="evenodd" d="M30.3918 22.5674C30.3918 27.0534 26.7552 30.6899 22.2692 30.6899C17.7833 30.6899 14.1467 27.0534 14.1467 22.5674C14.1467 18.0815 17.7833 14.4449 22.2692 14.4449C26.7552 14.4449 30.3918 18.0815 30.3918 22.5674ZM20.4795 18.786L22.8584 20.5701C23.1147 20.7624 23.1667 21.1261 22.9744 21.3824C22.7822 21.6388 22.4185 21.6907 22.1621 21.4985L21.0597 20.6717V23.5728C21.0597 23.8932 20.7999 24.153 20.4795 24.153C20.159 24.153 19.8993 23.8932 19.8993 23.5728V20.6717L18.7969 21.4985C18.5405 21.6907 18.1768 21.6388 17.9846 21.3824C17.7923 21.1261 17.8442 20.7624 18.1006 20.5701L20.4795 18.786ZM26.525 25.0952L24.1461 26.8794L21.7672 25.0952C21.5108 24.9029 21.4589 24.5393 21.6511 24.2829C21.8434 24.0265 22.2071 23.9746 22.4634 24.1669L23.5659 24.9937V22.0926C23.5659 21.7721 23.8256 21.5124 24.1461 21.5124C24.4665 21.5124 24.7263 21.7721 24.7263 22.0926V24.9937L25.8287 24.1669C26.0851 23.9746 26.4488 24.0265 26.641 24.2829C26.8333 24.5393 26.7813 24.9029 26.525 25.0952Z" fill="#1A1A1A"/>
</svg>
