<svg width="1440" height="1100" viewBox="0 0 1440 1100" fill="none" xmlns="http://www.w3.org/2000/svg">
<g opacity="0.4" clip-path="url(#clip0_77_968)">
<g opacity="0.5" filter="url(#filter0_f_77_968)">
<path d="M629.849 55.0563C616.096 223.534 881.042 287.018 1049.1 300.736C1217.16 314.454 1286.34 724.375 1413.35 500.347C1472.29 396.377 1465.73 311.609 1438.25 195.291C1372.95 -81.021 1127.11 -211.443 959.05 -225.161C790.99 -238.879 643.601 -113.422 629.849 55.0563Z" fill="#27B1FF"/>
</g>
<g opacity="0.5" filter="url(#filter1_f_77_968)">
<path d="M1111.45 182.422C1242.09 139.304 1393.55 34.5115 1462.36 -84.6105C1681.47 -463.941 641.398 -621.439 264.752 -397.747C-55.7817 -207.381 -543.842 262.179 -239.085 476.898C-45.8207 613.062 213.019 678.852 409.758 547.758C526.527 469.952 613.237 278.671 743.19 225.746C844.845 184.346 1007.22 216.825 1111.45 182.422Z" fill="#EA00FF"/>
</g>
<g opacity="0.5" filter="url(#filter2_f_77_968)">
<ellipse cx="794.396" cy="-61.5" rx="849.5" ry="491.5" fill="#27B1FF"/>
</g>
</g>
<defs>
<filter id="filter0_f_77_968" x="229.334" y="-626.187" width="1629.25" height="1593.36" filterUnits="userSpaceOnUse" color-interpolation-filters="sRGB">
<feFlood flood-opacity="0" result="BackgroundImageFix"/>
<feBlend mode="normal" in="SourceGraphic" in2="BackgroundImageFix" result="shape"/>
<feGaussianBlur stdDeviation="200" result="effect1_foregroundBlur_77_968"/>
</filter>
<filter id="filter1_f_77_968" x="-735.341" y="-900.647" width="2627.71" height="1919.5" filterUnits="userSpaceOnUse" color-interpolation-filters="sRGB">
<feFlood flood-opacity="0" result="BackgroundImageFix"/>
<feBlend mode="normal" in="SourceGraphic" in2="BackgroundImageFix" result="shape"/>
<feGaussianBlur stdDeviation="200" result="effect1_foregroundBlur_77_968"/>
</filter>
<filter id="filter2_f_77_968" x="-555.104" y="-1053" width="2699" height="1983" filterUnits="userSpaceOnUse" color-interpolation-filters="sRGB">
<feFlood flood-opacity="0" result="BackgroundImageFix"/>
<feBlend mode="normal" in="SourceGraphic" in2="BackgroundImageFix" result="shape"/>
<feGaussianBlur stdDeviation="250" result="effect1_foregroundBlur_77_968"/>
</filter>
<clipPath id="clip0_77_968">
<rect width="1440" height="1100" fill="white"/>
</clipPath>
</defs>
</svg>
