<svg xmlns="http://www.w3.org/2000/svg" xmlns:xlink="http://www.w3.org/1999/xlink" viewBox="0 0 745.2 860.77"><defs><style>.cls-1{fill:#b3d6ff;}.cls-2{fill:#a9d4ff;}.cls-3{fill:url(#linear-gradient);}.cls-4{fill:#e4f0fe;}.cls-4,.cls-6,.cls-8{opacity:0.3;}.cls-5{fill:url(#linear-gradient-2);}.cls-6{fill:#d0e6ff;}.cls-7{fill:url(#linear-gradient-3);}.cls-8{fill:#fff;}</style><linearGradient id="linear-gradient" x1="13.95" y1="510.69" x2="741.2" y2="348.14" gradientUnits="userSpaceOnUse"><stop offset="0" stop-color="#c132ce"/><stop offset="1" stop-color="#425afa"/></linearGradient><linearGradient id="linear-gradient-2" x1="143.26" y1="502.49" x2="250.53" y2="859.31" gradientUnits="userSpaceOnUse"><stop offset="0" stop-color="#425afa"/><stop offset="0.16" stop-color="#5a52f2"/><stop offset="0.55" stop-color="#9241de"/><stop offset="0.84" stop-color="#b436d3"/><stop offset="1" stop-color="#c132ce"/></linearGradient><linearGradient id="linear-gradient-3" x1="438.57" y1="793.27" x2="676.22" y2="501.71" gradientUnits="userSpaceOnUse"><stop offset="0" stop-color="#c132ce"/><stop offset="0.1" stop-color="#ab39d6"/><stop offset="0.28" stop-color="#8545e3"/><stop offset="0.47" stop-color="#684eed"/><stop offset="0.65" stop-color="#5355f4"/><stop offset="0.83" stop-color="#4659f9"/><stop offset="1" stop-color="#425afa"/></linearGradient></defs><title>reservoir light_1</title><g id="Layer_2" data-name="Layer 2"><g id="Layer_1-2" data-name="Layer 1"><polygon class="cls-1" points="745.2 645.64 372.6 430.52 372.6 0.28 745.2 215.4 745.2 645.64"/><polygon class="cls-2" points="0 645.64 372.6 430.52 372.6 0.28 0 215.4 0 645.64"/><polygon class="cls-3" points="372.6 645.64 745.2 430.52 372.6 215.4 0 430.52 372.6 645.64"/><polygon class="cls-4" points="372.6 860.76 0 645.64 0 215.4 372.6 430.52 372.6 860.76"/><polygon class="cls-5" points="0 645.64 372.6 860.76 372.6 860.76 372.6 645.64 0 430.52 0 645.64"/><polygon class="cls-6" points="372.6 860.76 745.2 645.64 745.2 215.4 372.6 430.52 372.6 860.76"/><polygon class="cls-7" points="745.2 645.64 372.6 860.76 372.6 860.76 372.6 645.64 745.2 430.52 745.2 645.64"/><polygon class="cls-8" points="372.6 430.24 745.2 215.12 372.6 0 0 215.12 372.6 430.24"/></g></g></svg>