<?xml version="1.0" encoding="utf-8"?>
<!-- Generator: Adobe Illustrator 23.0.0, SVG Export Plug-In . SVG Version: 6.00 Build 0)  -->
<svg version="1.1" id="Layer_1" xmlns="http://www.w3.org/2000/svg" xmlns:xlink="http://www.w3.org/1999/xlink" x="0px" y="0px"
	 viewBox="0 0 32 32" style="enable-background:new 0 0 32 32;" xml:space="preserve">
<style type="text/css">
	.st0{fill:#1A1A1A;}
</style>
<g>
	<g>
		<path class="st0" d="M16,7.4l6.3-3.2l-6.2-3.1c-0.1-0.1-0.2-0.1-0.3,0L9.7,4.3L16,7.4z"/>
		<path class="st0" d="M9,13.5c0,0.1,0.1,0.1,0.1,0.1l6.3,3.1V8.5L8.9,5.3v8C8.9,13.4,9,13.4,9,13.5z"/>
		<path class="st0" d="M22.9,13.6c0.1,0,0.1-0.1,0.1-0.1c0-0.1,0.1-0.1,0.1-0.2v-8l-6.5,3.2v8.2L22.9,13.6z"/>
	</g>
	<g>
		<g>
			<path class="st0" d="M7.9,21.5l6.3-3.2l-6.2-3.1c-0.1-0.1-0.2-0.1-0.3,0l-6.2,3.1L7.9,21.5z"/>
			<path class="st0" d="M0.9,27.5c0,0.1,0.1,0.1,0.1,0.1l6.3,3.1v-8.2l-6.5-3.2v8C0.9,27.4,0.9,27.5,0.9,27.5z"/>
			<path class="st0" d="M14.8,27.7c0.1,0,0.1-0.1,0.1-0.1c0-0.1,0.1-0.1,0.1-0.2v-8l-6.5,3.2v8.2L14.8,27.7z"/>
		</g>
		<g>
			<path class="st0" d="M24.1,21.5l6.3-3.2l-6.2-3.1c-0.1-0.1-0.2-0.1-0.3,0l-6.2,3.1L24.1,21.5z"/>
			<path class="st0" d="M17.1,27.5c0,0.1,0.1,0.1,0.1,0.1l6.3,3.1v-8.2L17,19.4v8C17,27.4,17,27.5,17.1,27.5z"/>
			<path class="st0" d="M30.9,27.7c0.1,0,0.1-0.1,0.1-0.1c0-0.1,0.1-0.1,0.1-0.2v-8l-6.5,3.2v8.2L30.9,27.7z"/>
		</g>
	</g>
</g>
</svg>
