<?xml version="1.0" encoding="utf-8"?>
<!-- Generator: Adobe Illustrator 23.0.0, SVG Export Plug-In . SVG Version: 6.00 Build 0)  -->
<svg version="1.1" id="Layer_1" xmlns="http://www.w3.org/2000/svg" xmlns:xlink="http://www.w3.org/1999/xlink" x="0px" y="0px"
	 viewBox="0 0 32 32" style="enable-background:new 0 0 32 32;" xml:space="preserve">
<style type="text/css">
	.st0{fill:#1A1A1A;}
	.st1{fill:none;stroke:#1A1A1A;stroke-width:1.2102;stroke-linecap:round;}
	.st2{fill:none;}
</style>
<g>
	<ellipse class="st0" cx="16" cy="3.9" rx="1.7" ry="1.8"/>
	<path class="st0" d="M7.6,2.3C6.1,0.8,3.5,0.8,2,2.3C0.4,3.9,0.4,6.5,2,8c1.5,1.5,4.1,1.5,5.6,0C9.2,6.5,9.2,3.9,7.6,2.3z"/>
	<path class="st0" d="M30,2L30,2c-0.8-0.8-1.7-1.2-2.8-1.2c-1.1,0-2.1,0.4-2.8,1.2c-1.6,1.6-1.6,4.1,0,5.7c1.5,1.5,4.1,1.5,5.6,0
		C31.6,6.2,31.6,3.6,30,2z"/>
	<path class="st1" d="M16,9V5.2"/>
	<path class="st0" d="M27.2,23.1c-1.1,0-2.1,0.4-2.8,1.2c-1.6,1.6-1.6,4.1,0,5.7c1.5,1.5,4.1,1.5,5.6,0c1.6-1.6,1.6-4.1,0-5.7
		C29.2,23.5,28.3,23.1,27.2,23.1z"/>
	<path class="st1" d="M11.1,11.1L7.4,7.4"/>
	<path class="st0" d="M7.6,24.3c-1.5-1.5-4.1-1.5-5.6,0c-1.6,1.6-1.6,4.1,0,5.7c1.5,1.5,4.1,1.5,5.6,0C9.2,28.4,9.2,25.8,7.6,24.3z"
		/>
	<path class="st1" d="M20.7,11l3.7-3.8"/>
	<path class="st0" d="M16,26.7c-1,0-1.7,0.8-1.7,1.8c0,1,0.8,1.8,1.7,1.8c1,0,1.7-0.8,1.7-1.8C17.7,27.5,16.9,26.7,16,26.7z"/>
	<path class="st1" d="M21.6,21.9l3.7,3.8"/>
	<path class="st0" d="M3.6,14.9c-1,0-1.7,0.8-1.7,1.8s0.8,1.8,1.7,1.8s1.7-0.8,1.7-1.8S4.5,14.9,3.6,14.9z"/>
	<path class="st1" d="M10.3,22l-3.7,3.8"/>
	<ellipse class="st0" cx="28.4" cy="16.7" rx="1.7" ry="1.8"/>
	<path class="st1" d="M16,24.5v3.8"/>
	<path class="st0" d="M15.9,10.2l-5.1,2.5l5.1,2.6l5.1-2.6L15.9,10.2C15.9,10.2,15.9,10.2,15.9,10.2z"/>
	<path class="st1" d="M8.8,16.7H5"/>
	<path class="st0" d="M10.1,20.4l5.2,2.6v-6.7L10,13.6v6.6C10,20.3,10.1,20.3,10.1,20.4z"/>
	<path class="st1" d="M23,16.7h3.7"/>
	<path class="st0" d="M21.6,20.5C21.6,20.4,21.6,20.4,21.6,20.5c0.1-0.1,0.1-0.1,0.1-0.2v-6.6l-5.2,2.6V23L21.6,20.5z"/>
	<line class="st2" x1="11.6" y1="1.4" x2="11.6" y2="1.5"/>
</g>
</svg>
